<?xml version="1.0" encoding="iso-8859-1"?>
<!-- Generator: Adobe Illustrator 18.0.0, SVG Export Plug-In . SVG Version: 6.00 Build 0)  -->
<!DOCTYPE svg PUBLIC "-//W3C//DTD SVG 1.1//EN" "http://www.w3.org/Graphics/SVG/1.1/DTD/svg11.dtd">
<svg version="1.1" xmlns="http://www.w3.org/2000/svg" xmlns:xlink="http://www.w3.org/1999/xlink" x="0px" y="0px"
	 viewBox="0 0 16.157 14.391" style="enable-background:new 0 0 16.157 14.391;" xml:space="preserve">
<g id="Layer_1">
	<g>
		<path style="fill:#FDC7BD;" d="M8.07,13.887C7.764,13.706,0.5,9.357,0.5,4.466C0.5,2.495,1.716,0.5,4.04,0.5
			c1.529,0,2.913,0.731,3.609,1.907l0.43,0.727l0.43-0.727C9.206,1.231,10.589,0.5,12.118,0.5c2.323,0,3.539,1.995,3.539,3.966
			c0,4.897-7.263,9.24-7.572,9.423l-0.006,0.002C8.078,13.891,8.075,13.89,8.07,13.887z"/>
		<path style="fill:#EC4D4D;" d="M12.118,1c2.088,0,3.039,1.797,3.039,3.466c0,4.133-5.8,8.03-7.078,8.839
			C6.797,12.493,1,8.592,1,4.466C1,2.797,1.951,1,4.04,1c1.354,0,2.572,0.637,3.179,1.661l0.86,1.453l0.861-1.453
			C9.546,1.637,10.764,1,12.118,1 M12.118,0c-1.756,0-3.283,0.875-4.039,2.152C7.323,0.875,5.796,0,4.04,0C1.388,0,0,2.247,0,4.466
			c0,5.184,7.5,9.665,7.819,9.854c0.08,0.047,0.17,0.071,0.26,0.071c0.09,0,0.18-0.024,0.26-0.071
			c0.32-0.188,7.819-4.67,7.819-9.854C16.158,2.247,14.77,0,12.118,0L12.118,0z"/>
	</g>
</g>
<g id="Layer_2" style="display:none;">
	<g style="display:inline;">
		<path style="fill:#FFFFFF;" d="M8.07,13.887C7.764,13.706,0.5,9.357,0.5,4.466C0.5,2.495,1.716,0.5,4.04,0.5
			c1.529,0,2.913,0.731,3.609,1.907l0.43,0.727l0.43-0.727C9.206,1.231,10.589,0.5,12.118,0.5c2.323,0,3.539,1.995,3.539,3.966
			c0,4.897-7.263,9.24-7.572,9.423l-0.006,0.002C8.078,13.891,8.075,13.89,8.07,13.887z"/>
		<path style="fill:#EC4D4D;" d="M12.118,1c2.088,0,3.039,1.797,3.039,3.466c0,4.133-5.8,8.03-7.078,8.839
			C6.797,12.493,1,8.592,1,4.466C1,2.797,1.951,1,4.04,1c1.354,0,2.572,0.637,3.179,1.661l0.86,1.453l0.861-1.453
			C9.546,1.637,10.764,1,12.118,1 M12.118,0c-1.756,0-3.283,0.875-4.039,2.152C7.323,0.875,5.796,0,4.04,0C1.388,0,0,2.247,0,4.466
			c0,5.184,7.5,9.665,7.819,9.854c0.08,0.047,0.17,0.071,0.26,0.071c0.09,0,0.18-0.024,0.26-0.071
			c0.32-0.188,7.819-4.67,7.819-9.854C16.158,2.247,14.77,0,12.118,0L12.118,0z"/>
	</g>
</g>
<g id="Layer_3" style="display:none;">
	<g style="display:inline;">
		<g>
			<path style="fill:#FDC7BD;" d="M8.07,13.887C7.764,13.706,0.5,9.357,0.5,4.466C0.5,2.495,1.716,0.5,4.04,0.5
				c1.529,0,2.913,0.731,3.609,1.907l0.43,0.727l0.43-0.727C9.206,1.231,10.589,0.5,12.118,0.5c2.323,0,3.539,1.995,3.539,3.966
				c0,4.897-7.263,9.24-7.572,9.423l-0.006,0.002C8.078,13.891,8.075,13.89,8.07,13.887z"/>
			<path style="fill:#EC4D4D;" d="M12.118,1c2.088,0,3.039,1.797,3.039,3.466c0,4.133-5.8,8.03-7.078,8.839
				C6.797,12.493,1,8.592,1,4.466C1,2.797,1.951,1,4.04,1c1.354,0,2.572,0.637,3.179,1.661l0.86,1.453l0.861-1.453
				C9.546,1.637,10.764,1,12.118,1 M12.118,0c-1.756,0-3.283,0.875-4.039,2.152C7.323,0.875,5.796,0,4.04,0C1.388,0,0,2.247,0,4.466
				c0,5.184,7.5,9.665,7.819,9.854c0.08,0.047,0.17,0.071,0.26,0.071c0.09,0,0.18-0.024,0.26-0.071
				c0.32-0.188,7.819-4.67,7.819-9.854C16.158,2.247,14.77,0,12.118,0L12.118,0z"/>
		</g>
		
			<polyline style="fill-rule:evenodd;clip-rule:evenodd;fill:none;stroke:#EC4D4D;stroke-linecap:round;stroke-linejoin:round;stroke-miterlimit:10;" points="
			7.535,2.254 9.686,5.802 5.124,6.295 8.174,10.455 		"/>
	</g>
</g>
<g id="Layer_4" style="display:none;">
	<g style="display:inline;">
		<g>
			<path style="fill:#FFFFFF;" d="M8.07,13.887C7.764,13.706,0.5,9.357,0.5,4.466C0.5,2.495,1.716,0.5,4.04,0.5
				c1.529,0,2.913,0.731,3.609,1.907l0.43,0.727l0.43-0.727C9.206,1.231,10.589,0.5,12.118,0.5c2.323,0,3.539,1.995,3.539,3.966
				c0,4.897-7.263,9.24-7.572,9.423l-0.006,0.002C8.078,13.891,8.075,13.89,8.07,13.887z"/>
			<path style="fill:#EC4D4D;" d="M12.118,1c2.088,0,3.039,1.797,3.039,3.466c0,4.133-5.8,8.03-7.078,8.839
				C6.797,12.493,1,8.592,1,4.466C1,2.797,1.951,1,4.04,1c1.354,0,2.572,0.637,3.179,1.661l0.86,1.453l0.861-1.453
				C9.546,1.637,10.764,1,12.118,1 M12.118,0c-1.756,0-3.283,0.875-4.039,2.152C7.323,0.875,5.796,0,4.04,0C1.388,0,0,2.247,0,4.466
				c0,5.184,7.5,9.665,7.819,9.854c0.08,0.047,0.17,0.071,0.26,0.071c0.09,0,0.18-0.024,0.26-0.071
				c0.32-0.188,7.819-4.67,7.819-9.854C16.158,2.247,14.77,0,12.118,0L12.118,0z"/>
		</g>
		
			<polyline style="fill-rule:evenodd;clip-rule:evenodd;fill:none;stroke:#EC4D4D;stroke-linecap:round;stroke-linejoin:round;stroke-miterlimit:10;" points="
			7.535,2.254 9.686,5.802 5.124,6.295 8.174,10.455 		"/>
	</g>
</g>
</svg>
